<?xml version="1.0" encoding="UTF-8"?>
<!DOCTYPE svg PUBLIC "-//W3C//DTD SVG 1.1//EN" "http://www.w3.org/Graphics/SVG/1.1/DTD/svg11.dtd">
<!-- Creator: CorelDRAW 2017 -->
<svg xmlns="http://www.w3.org/2000/svg" xml:space="preserve" width="160mm" height="50mm" version="1.1" style="shape-rendering:geometricPrecision; text-rendering:geometricPrecision; image-rendering:optimizeQuality; fill-rule:evenodd; clip-rule:evenodd"
viewBox="0 0 16000 5000"
 xmlns:xlink="http://www.w3.org/1999/xlink">
 <defs>
  <style type="text/css">
   <![CDATA[
    .fil0 {fill:none}
    .fil1 {fill:#FEFEFE}
    .fil4 {fill:#FEFEFE;fill-rule:nonzero}
    .fil6 {fill:#FEFEFE;fill-rule:nonzero}
    .fil5 {fill:#0071B8;fill-rule:nonzero}
    .fil2 {fill:url(#id0);fill-rule:nonzero}
    .fil3 {fill:url(#id1);fill-rule:nonzero}
   ]]>
  </style>
  <linearGradient id="id0" gradientUnits="userSpaceOnUse" x1="7221" y1="13" x2="15455" y2="4048">
   <stop offset="0" style="stop-opacity:1; stop-color:#0082C6"/>
   <stop offset="0.6" style="stop-opacity:1; stop-color:#0071B8"/>
   <stop offset="1" style="stop-opacity:1; stop-color:#08558C"/>
  </linearGradient>
  <linearGradient id="id1" gradientUnits="userSpaceOnUse" x1="9746" y1="1045" x2="-422" y2="3023">
   <stop offset="0" style="stop-opacity:1; stop-color:#F16852"/>
   <stop offset="0.6" style="stop-opacity:1; stop-color:#ED3237"/>
   <stop offset="1" style="stop-opacity:1; stop-color:#A02B2D"/>
  </linearGradient>
 </defs>
 <g id="Camada_x0020_1">
  <metadata id="CorelCorpID_0Corel-Layer"/>
  <rect class="fil0" width="16000" height="5000"/>
  <g id="_1427660272">
   <polygon class="fil1" points="7650,126 15835,126 15026,3935 165,3935 974,126 "/>
   <g>
    <polygon class="fil2" points="7771,276 7588,1139 8255,1139 8232,1247 7565,1247 7499,1558 8166,1558 8143,1666 7476,1666 7410,1977 8077,1977 8054,2084 7387,2084 7321,2396 7988,2396 7965,2503 7298,2503 7232,2815 7899,2815 7876,2922 7209,2922 7025,3785 14904,3785 15650,276 "/>
    <polygon class="fil3" points="6816,3785 7000,2922 6333,2922 6356,2815 7022,2815 7089,2503 6422,2503 6445,2396 7112,2396 7178,2084 6511,2084 6534,1977 7201,1977 7267,1666 6600,1666 6623,1558 7290,1558 7356,1247 6689,1247 6712,1139 7379,1139 7562,276 1096,276 350,3785 "/>
   </g>
   <path class="fil4" d="M10004 2523l-515 0 -126 591 -472 0 336 -1579 1142 0 -80 376 -670 0 -55 257 515 0 -75 355zm1044 -988l0 0 -336 1579 -485 0 336 -1579 485 0zm1108 1202l0 0 -80 377 -1188 0 336 -1579 1188 0 -77 364 -713 0 -49 229 576 0 -75 351 -576 0 -55 258 713 0zm90 377l0 0 336 -1579 802 0c167,0 279,42 338,126 58,84 76,180 53,288 -17,79 -54,150 -112,213 -58,64 -133,107 -226,131 194,49 270,172 228,368 -25,117 -83,222 -175,314 -92,92 -256,138 -492,138l-752 0zm521 -352l0 0 236 0c59,0 105,-14 138,-43 34,-29 54,-61 62,-98 8,-36 1,-70 -19,-100 -20,-30 -66,-46 -137,-46l-220 0 -61 287zm132 -622l0 0 224 0c56,0 99,-14 128,-43 29,-29 47,-59 54,-91 19,-88 -26,-132 -134,-132l-216 0 -57 266zm-3626 -928l0 0 108 -19c2,29 22,44 58,44 28,0 44,-8 47,-22 2,-8 0,-14 -6,-18 -6,-4 -16,-8 -32,-12 -61,-12 -99,-28 -113,-48 -14,-20 -18,-43 -12,-70 7,-34 26,-63 57,-86 31,-23 71,-34 120,-34 74,0 117,30 128,90l-99 28c-4,-24 -21,-37 -51,-37 -24,0 -38,8 -41,23 -1,7 0,12 5,16 5,4 15,7 30,11 42,9 71,17 88,25 17,7 30,19 38,36 9,17 10,38 6,61 -8,37 -29,67 -64,90 -35,23 -77,34 -125,34 -89,0 -136,-37 -141,-111zm920 -260l0 0 -78 365 -112 0 78 -365 112 0zm358 260l0 0 108 -19c2,29 22,44 58,44 28,0 44,-8 47,-22 2,-8 0,-14 -6,-18 -6,-4 -16,-8 -32,-12 -61,-12 -99,-28 -113,-48 -14,-20 -18,-43 -12,-70 7,-34 26,-63 57,-86 31,-23 71,-34 120,-34 74,0 117,30 128,90l-99 28c-4,-24 -21,-37 -51,-37 -24,0 -38,8 -41,23 -1,7 0,12 5,16 5,4 15,7 30,11 42,9 71,17 88,25 17,7 30,19 38,36 9,17 10,38 6,61 -8,37 -29,67 -64,90 -35,23 -77,34 -125,34 -89,0 -136,-37 -141,-111zm942 -172l0 0 -59 278 -106 0 59 -278 -76 0 19 -88 258 0 -19 88 -76 0zm721 191l0 0 -19 87 -275 0 78 -365 275 0 -18 84 -165 0 -11 53 133 0 -17 81 -133 0 -13 60 165 0zm889 -278l0 0 -78 365 -104 0 56 -261 -123 261 -71 0 -15 -261 -56 261 -84 0 78 -365 147 0 12 194 92 -194 147 0zm566 365l0 0 -5 -72 -98 0 -37 72 -91 0 190 -365 119 0 37 365 -114 0zm-67 -152l0 0 59 0 -7 -106 -52 106z"/>
   <path class="fil5" d="M952 4264l311 0 -18 76 -210 0 -25 110 172 0 -18 76 -172 0 -44 193 -102 0 105 -455zm512 248l0 0 -140 0c13,-52 44,-79 84,-79 37,0 60,26 58,65 0,1 -1,7 -2,14zm71 115l0 0 -84 -18c-18,34 -46,52 -77,52 -41,0 -65,-29 -63,-77 0,-5 1,-11 2,-18l239 0c2,-11 4,-23 4,-35 5,-98 -50,-158 -142,-158 -111,0 -194,85 -200,199 -5,95 56,157 150,157 72,0 132,-35 170,-101zm238 -188l0 0c30,0 50,24 48,62 -5,90 -45,159 -91,159 -31,0 -47,-24 -45,-68 5,-90 43,-153 88,-153zm106 -175l0 0 -38 165c-18,-36 -47,-54 -88,-54 -38,0 -72,16 -101,48 -38,41 -63,101 -67,166 -5,84 38,138 105,138 42,0 76,-22 103,-66l-13 58 88 0 105 -454 -94 0zm332 248l0 0 -140 0c13,-52 44,-79 84,-79 37,0 60,26 58,65 0,1 -1,7 -2,14zm71 115l0 0 -84 -18c-18,34 -46,52 -77,52 -41,0 -65,-29 -63,-77 0,-5 1,-11 2,-18l239 0c2,-11 4,-23 4,-35 5,-98 -50,-158 -142,-158 -111,0 -194,85 -200,199 -5,95 56,157 150,157 72,0 132,-35 170,-101zm113 -245l0 0 -78 337 98 0 27 -121c21,-90 52,-134 115,-134 7,0 14,1 21,1l21 -92c-8,-1 -14,-1 -18,-1 -51,0 -89,34 -120,105l22 -96 -89 0zm397 171l0 0c2,0 8,1 18,1 -11,67 -56,108 -98,108 -27,0 -44,-16 -42,-43 2,-41 43,-65 122,-65zm-5 103l0 0c-3,17 -5,29 -5,37 -1,10 -1,18 0,26l96 0c-1,-12 -1,-22 0,-31 1,-12 3,-25 6,-40l31 -136c3,-13 5,-26 5,-36 4,-66 -44,-103 -131,-103 -88,0 -146,33 -173,86l83 20c13,-28 40,-43 75,-43 36,0 54,17 52,49 0,3 -1,8 -4,19 -12,-1 -21,-1 -31,-1 -143,0 -220,46 -224,124 -3,56 37,97 102,97 48,0 88,-23 118,-68zm217 164l0 0 -16 37c39,12 69,18 89,18 57,0 87,-26 90,-70 2,-35 -22,-54 -69,-54 -1,0 -2,0 -3,0l12 -31 -31 0 -26 65c3,0 5,0 8,0 39,0 56,5 55,25 -1,16 -14,27 -37,27 -17,0 -42,-5 -73,-16zm251 -205l0 0 -77 -21c-15,39 -41,60 -71,60 -34,0 -53,-25 -51,-71 5,-84 41,-139 84,-139 30,0 52,25 51,67l88 -14c-3,-76 -56,-124 -135,-124 -101,0 -180,85 -187,202 -5,92 50,152 138,152 72,0 129,-39 160,-113zm311 -303l0 0c35,0 56,-23 72,-73l-33 0c-6,18 -15,27 -31,27 -6,0 -13,-1 -20,-3l-20 -7c-10,-3 -19,-5 -27,-5 -34,0 -58,24 -74,75l34 0c6,-20 16,-28 33,-28 4,0 11,1 19,4l21 6c9,3 18,5 27,5zm-36 242l0 0c-11,67 -56,108 -97,108 -28,0 -44,-16 -42,-43 2,-41 43,-65 121,-65 2,0 9,1 18,1zm-23 102l0 0c-3,17 -5,29 -5,37 -1,10 -1,18 0,26l96 0c-1,-12 -1,-22 0,-31 1,-12 3,-25 6,-40l31 -136c3,-13 5,-26 5,-36 4,-66 -44,-103 -131,-103 -88,0 -146,33 -173,86l83 20c13,-28 40,-43 75,-43 36,0 54,17 52,49 0,3 -1,8 -4,19 -12,-1 -22,-1 -31,-1 -143,0 -219,46 -224,124 -3,56 37,97 102,97 48,0 88,-23 118,-68zm360 -217l0 0c36,0 57,28 55,75 -5,83 -46,146 -92,146 -34,0 -56,-28 -54,-77 4,-80 44,-145 91,-145zm4 -67l0 0c-105,0 -187,92 -193,199 -5,92 56,157 151,157 106,0 185,-92 191,-198 5,-96 -54,-157 -149,-157zm569 67l0 0c30,0 51,24 48,62 -5,90 -45,159 -91,159 -31,0 -47,-24 -45,-68 5,-90 43,-153 88,-153zm106 -175l0 0 -38 165c-18,-36 -47,-54 -87,-54 -38,0 -72,16 -102,48 -38,41 -63,101 -67,166 -5,84 39,138 105,138 42,0 77,-22 103,-66l-14 58 88 0 105 -454 -94 0zm299 289l0 0c2,0 8,1 18,1 -11,67 -56,108 -98,108 -27,0 -44,-16 -42,-43 2,-41 43,-65 122,-65zm-5 103l0 0c-3,17 -5,29 -5,37 -1,10 -1,18 0,26l96 0c-1,-12 -1,-22 0,-31 1,-12 3,-25 6,-40l31 -136c3,-13 5,-26 5,-36 4,-66 -44,-103 -131,-103 -88,0 -146,33 -173,86l83 20c12,-28 40,-43 75,-43 36,0 54,17 52,49 0,3 -1,8 -4,19 -12,-1 -21,-1 -31,-1 -143,0 -219,46 -224,124 -3,56 37,97 102,97 48,0 88,-23 118,-68zm302 10l0 0c-32,0 -59,-19 -69,-52l-82 15c13,59 69,98 150,98 88,0 151,-48 154,-109 2,-46 -26,-73 -85,-103 -37,-18 -64,-29 -63,-54 1,-16 15,-28 36,-28 22,0 50,17 61,44l78 -20c-16,-50 -69,-84 -138,-84 -78,0 -137,50 -140,106 -2,44 29,73 87,103 37,18 57,32 56,52 -1,18 -18,32 -45,32zm607 -402l0 0 -105 0 -105 455 106 0 104 -455zm59 118l0 0 -78 337 94 0 44 -189c12,-53 45,-85 79,-85 27,0 42,18 40,49 0,7 -1,13 -3,21l-47 205 94 0 49 -212c4,-17 6,-31 6,-42 3,-58 -31,-92 -91,-92 -48,0 -87,25 -115,72l14 -63 -86 0zm500 57l0 0c30,0 51,24 48,62 -5,90 -45,159 -91,159 -31,0 -47,-24 -45,-68 5,-90 43,-153 88,-153zm106 -175l0 0 -38 165c-18,-36 -47,-54 -88,-54 -38,0 -72,16 -102,48 -38,41 -63,101 -67,166 -5,84 38,138 105,138 42,0 77,-22 103,-66l-14 58 89 0 104 -454 -94 0zm413 -43l0 0 -82 0 -81 116 43 0 120 -116zm28 161l0 0 -94 0 -44 189c-12,52 -46,85 -80,85 -27,0 -42,-17 -41,-49 0,-7 1,-14 3,-22l48 -205 -94 0 -49 212c-4,16 -6,30 -6,41 -3,59 31,93 90,93 48,0 88,-25 116,-72l-14 63 87 0 78 -337zm148 284l0 0c-32,0 -59,-19 -69,-52l-82 15c12,59 70,98 150,98 88,0 151,-48 154,-109 2,-46 -26,-73 -86,-103 -37,-18 -64,-29 -63,-54 1,-16 15,-28 36,-28 22,0 50,17 61,44l78 -20c-16,-50 -69,-84 -138,-84 -78,0 -136,50 -139,106 -2,44 29,73 88,103 37,18 57,32 56,52 -1,18 -17,32 -45,32zm374 -279l0 0 23 -100 -91 7 -25 93 -49 0 -14 63 48 0 -32 136c-5,21 -8,38 -9,51 -3,58 32,88 102,88 17,0 34,-2 52,-5l16 -69c-11,2 -22,4 -32,4 -29,0 -42,-11 -41,-35 0,-8 2,-14 3,-20l34 -149 70 0 14 -63 -69 0zm127 -6l0 0 -78 337 98 0 27 -121c21,-90 52,-134 115,-134 7,0 14,1 21,1l21 -92c-8,-1 -13,-1 -18,-1 -51,0 -89,34 -120,105l22 -96 -89 0zm269 -118l0 0 -18 79 104 0 18 -79 -104 0zm-101 455l0 0 98 0 77 -337 -98 0 -78 337zm411 -166l0 0c2,0 9,1 18,1 -11,67 -56,108 -98,108 -28,0 -44,-16 -42,-43 2,-41 44,-65 121,-65zm-5 103l0 0c-3,17 -5,29 -5,37 -1,10 -1,18 0,26l96 0c-1,-12 -1,-22 0,-31 1,-12 3,-25 6,-40l31 -136c3,-13 5,-26 5,-36 4,-66 -44,-103 -131,-103 -88,0 -146,33 -173,86l83 20c13,-28 40,-43 75,-43 36,0 54,17 52,49 0,3 -1,8 -4,19 -12,-1 -22,-1 -31,-1 -143,0 -219,46 -224,124 -3,56 37,97 102,97 48,0 88,-23 118,-68zm302 10l0 0c-32,0 -59,-19 -69,-52l-82 15c13,59 70,98 150,98 88,0 151,-48 154,-109 2,-46 -26,-73 -86,-103 -37,-18 -64,-29 -62,-54 1,-16 15,-28 36,-28 22,0 50,17 61,44l78 -20c-16,-50 -69,-84 -138,-84 -78,0 -136,50 -139,106 -2,44 29,73 87,103 37,18 57,32 56,52 -1,18 -17,32 -45,32zm592 -227l0 0c30,0 50,24 48,62 -5,90 -45,159 -91,159 -31,0 -47,-24 -45,-68 5,-90 43,-153 88,-153zm106 -175l0 0 -38 165c-18,-36 -47,-54 -88,-54 -38,0 -72,16 -102,48 -37,41 -63,101 -67,166 -5,84 38,138 104,138 42,0 77,-22 103,-66l-13 58 89 0 105 -454 -94 0zm272 175l0 0c36,0 57,28 55,75 -5,83 -46,146 -92,146 -34,0 -56,-28 -54,-77 4,-80 44,-145 91,-145zm4 -67l0 0c-105,0 -187,92 -193,199 -5,92 56,157 151,157 106,0 185,-92 191,-198 5,-96 -54,-157 -149,-157zm477 -108l0 0 -105 455 333 0 18 -82 -235 0 27 -117 188 0 18 -76 -188 0 24 -104 220 0 17 -76 -318 0zm424 402l0 0c-31,0 -58,-19 -69,-52l-82 15c13,59 70,98 150,98 88,0 151,-48 154,-109 2,-46 -26,-73 -86,-103 -37,-18 -64,-29 -62,-54 1,-16 15,-28 36,-28 22,0 49,17 61,44l78 -20c-16,-50 -69,-84 -138,-84 -78,0 -136,50 -139,106 -2,44 29,73 87,103 37,18 57,32 56,52 -1,18 -17,32 -45,32zm374 -279l0 0 23 -100 -91 7 -25 93 -49 0 -15 63 48 0 -32 136c-5,21 -8,38 -9,51 -3,58 32,88 102,88 16,0 33,-2 52,-5l16 -69c-11,2 -23,4 -32,4 -29,0 -42,-11 -41,-35 0,-8 1,-14 3,-20l34 -149 70 0 14 -63 -70 0zm282 165l0 0c2,0 8,1 18,1 -11,67 -56,108 -98,108 -28,0 -44,-16 -42,-43 2,-41 43,-65 122,-65zm-5 103l0 0c-3,17 -5,29 -5,37 -1,10 -1,18 0,26l96 0c-1,-12 -1,-22 0,-31 1,-12 3,-25 6,-40l31 -136c3,-13 5,-26 5,-36 4,-66 -44,-103 -131,-103 -88,0 -146,33 -173,86l83 20c13,-28 40,-43 75,-43 36,0 54,17 53,49 0,3 -1,8 -4,19 -12,-1 -22,-1 -31,-1 -143,0 -220,46 -224,124 -3,56 37,97 102,97 48,0 88,-23 119,-68zm357 -217l0 0c30,0 51,24 49,62 -5,90 -45,159 -91,159 -31,0 -47,-24 -45,-68 5,-90 43,-153 88,-153zm106 -175l0 0 -38 165c-18,-36 -47,-54 -88,-54 -38,0 -72,16 -101,48 -38,41 -63,101 -67,166 -5,84 38,138 105,138 42,0 77,-22 103,-66l-14 58 88 0 105 -454 -94 0zm272 175l0 0c36,0 58,28 55,75 -5,83 -46,146 -93,146 -34,0 -56,-28 -54,-77 4,-80 44,-145 91,-145zm4 -67l0 0c-105,0 -187,92 -193,199 -5,92 56,157 151,157 106,0 185,-92 191,-198 5,-96 -54,-157 -149,-157zm569 67l0 0c30,0 50,24 48,62 -5,90 -45,159 -91,159 -31,0 -47,-24 -45,-68 5,-90 43,-153 88,-153zm106 -175l0 0 -38 165c-18,-36 -47,-54 -88,-54 -38,0 -72,16 -102,48 -38,41 -63,101 -67,166 -5,84 38,138 104,138 42,0 77,-22 103,-66l-13 58 88 0 105 -454 -94 0zm299 289l0 0c2,0 9,1 18,1 -11,67 -56,108 -97,108 -28,0 -44,-16 -42,-43 2,-41 44,-65 121,-65zm-5 103l0 0c-3,17 -5,29 -5,37 -1,10 -1,18 0,26l96 0c-1,-12 -1,-22 0,-31 1,-12 3,-25 6,-40l31 -136c3,-13 5,-26 5,-36 4,-66 -44,-103 -131,-103 -88,0 -146,33 -173,86l83 20c13,-28 40,-43 75,-43 36,0 54,17 52,49 0,3 -1,8 -4,19 -12,-1 -22,-1 -31,-1 -143,0 -219,46 -224,124 -3,56 37,97 102,97 48,0 88,-23 118,-68zm517 -206l0 0 27 -113 86 0c41,0 62,19 60,51 -2,38 -32,62 -85,62l-88 0zm-15 68l0 0 81 0c54,0 80,20 78,60 -2,43 -34,66 -91,66l-97 0 29 -126zm-37 -253l0 0 -105 455 226 0c108,0 170,-51 174,-130 3,-52 -24,-90 -74,-106 63,-11 103,-54 106,-109 4,-74 -44,-110 -145,-110l-181 0zm556 289l0 0c2,0 9,1 19,1 -11,67 -56,108 -98,108 -28,0 -44,-16 -42,-43 2,-41 43,-65 121,-65zm-5 103l0 0c-3,17 -5,29 -5,37 -1,10 -1,18 0,26l96 0c-1,-12 -1,-22 0,-31 1,-12 3,-25 6,-40l31 -136c3,-13 5,-26 5,-36 4,-66 -43,-103 -131,-103 -88,0 -146,33 -173,86l83 20c13,-28 40,-43 75,-43 36,0 54,17 52,49 0,3 -1,8 -4,19 -12,-1 -22,-1 -31,-1 -143,0 -219,46 -223,124 -3,56 37,97 101,97 48,0 89,-23 118,-68zm259 -392l0 0 -105 455 94 0 44 -189c12,-53 45,-85 79,-85 27,0 42,17 40,49 0,7 -1,14 -3,21l-47 205 94 0 49 -212c3,-17 6,-31 6,-42 3,-58 -31,-92 -89,-92 -41,0 -79,20 -108,60l39 -169 -94 0zm373 0l0 0 -18 79 104 0 18 -79 -104 0zm-101 455l0 0 98 0 77 -337 -98 0 -78 337zm411 -166l0 0c2,0 9,1 18,1 -11,67 -56,108 -98,108 -28,0 -44,-16 -42,-43 2,-41 44,-65 121,-65zm-5 103l0 0c-3,17 -5,29 -5,37 -1,10 -1,18 0,26l96 0c-1,-12 -1,-22 0,-31 1,-12 3,-25 6,-40l31 -136c3,-13 5,-26 5,-36 4,-66 -44,-103 -131,-103 -88,0 -146,33 -173,86l83 20c13,-28 40,-43 75,-43 36,0 54,17 52,49 0,3 -1,8 -4,19 -12,-1 -21,-1 -31,-1 -143,0 -220,46 -224,124 -3,56 37,97 102,97 48,0 88,-23 118,-68z"/>
   <path class="fil6" d="M2989 1154l-177 40c-15,-70 -62,-105 -138,-105 -36,0 -64,8 -87,25 -22,17 -34,37 -36,61 -2,24 6,42 22,54 16,12 48,25 95,37 68,17 121,36 160,55 38,19 67,46 86,80 19,35 27,76 24,126 -5,80 -39,146 -101,200 -62,54 -148,80 -256,80 -93,0 -168,-21 -227,-64 -59,-43 -93,-107 -102,-193l183 -25c13,84 68,126 164,126 43,0 77,-9 102,-28 24,-18 37,-42 39,-70 2,-27 -6,-47 -22,-59 -17,-12 -57,-27 -120,-44 -57,-15 -103,-32 -136,-51 -33,-19 -59,-45 -77,-79 -18,-34 -26,-73 -23,-117 5,-71 36,-134 94,-189 58,-54 134,-82 230,-82 164,0 265,74 304,221zm793 -209l-38 160 -398 0 -40 174 332 0 -35 154 -333 0 -46 199 405 0 -38 160 -603 0 196 -847 597 0zm775 0l-197 847 -159 0 -206 -613c-4,41 -24,138 -59,290l-75 323 -159 0 196 -847 215 0 170 515c2,-17 20,-100 54,-248l62 -267 159 0zm656 847l-200 0 -15 -187 -283 0 -94 187 -183 0 456 -847 232 0 87 847zm-426 -334l198 0 -28 -339 -170 339zm885 -513l-196 847 -195 0 196 -847 195 0z"/>
   <path class="fil6" d="M1982 2570l-194 9c2,-13 3,-23 3,-30 3,-43 -6,-79 -25,-109 -20,-30 -51,-45 -95,-45 -71,0 -125,43 -161,128 -36,86 -57,169 -62,252 -4,61 6,105 31,133 24,28 57,42 98,42 83,0 144,-52 182,-156l172 30c-77,192 -203,289 -379,289 -109,0 -189,-36 -242,-108 -53,-72 -76,-158 -69,-259 9,-135 54,-254 135,-357 82,-103 184,-154 308,-154 90,0 163,27 220,82 57,54 83,139 80,253zm364 -320l-196 847 -195 0 196 -847 195 0zm1072 0l-196 847 -198 0 164 -709 -387 709 -114 0 -67 -716 -166 716 -160 0 196 -847 297 0 42 518 281 -518 307 0zm649 847l-200 0 -15 -187 -283 0 -94 187 -183 0 456 -847 232 0 87 847zm-425 -334l198 0 -28 -339 -170 339zm1116 -353l-213 0 -159 687 -195 0 159 -687 -214 0 37 -160 622 0 -38 160zm694 -160l-38 160 -398 0 -40 174 332 0 -35 154 -333 0 -46 199 405 0 -38 160 -603 0 196 -847 597 0zm702 320l-194 9c2,-13 3,-23 3,-30 3,-43 -6,-79 -25,-109 -20,-30 -51,-45 -95,-45 -71,0 -125,43 -161,128 -36,86 -57,169 -62,252 -4,61 6,105 31,133 24,28 57,42 98,42 83,0 144,-52 182,-156l172 30c-77,192 -203,289 -379,289 -109,0 -189,-36 -242,-108 -53,-72 -76,-158 -69,-259 9,-135 54,-254 135,-357 82,-103 184,-154 308,-154 90,0 163,27 220,82 57,54 83,139 80,253z"/>
  </g>
 </g>
</svg>
