<svg xmlns="http://www.w3.org/2000/svg" width="160mm" height="50mm" viewBox="0 0 16000 5000" shape-rendering="geometricPrecision" text-rendering="geometricPrecision" image-rendering="optimizeQuality" fill-rule="evenodd" clip-rule="evenodd"><defs><style>.fil0{fill:none}.fil1,.fil4,.fil6{fill:#fefefe}.fil2,.fil3,.fil4,.fil5,.fil6{fill-rule:nonzero}.fil5{fill:#0071b8}.fil2{fill:url(#id0)}.fil3{fill:url(#id1)}</style><linearGradient id="id0" gradientUnits="userSpaceOnUse" x1="7221" y1="13" x2="15455" y2="4048"><stop offset="0" stop-color="#0082c6"/><stop offset=".6" stop-color="#0071b8"/><stop offset="1" stop-color="#08558c"/></linearGradient><linearGradient id="id1" gradientUnits="userSpaceOnUse" x1="9746" y1="1045" x2="-422" y2="3023"><stop offset="0" stop-color="#f16852"/><stop offset=".6" stop-color="#ed3237"/><stop offset="1" stop-color="#a02b2d"/></linearGradient></defs><g id="Camada_x0020_1"><path class="fil0" d="M0 0h16000v5000H0z"/><g id="_1427660272"><path class="fil1" d="M7650 126h8185l-809 3809H165L974 126z"/><path class="fil2" d="M7771 276l-183 863h667l-23 108h-667l-66 311h667l-23 108h-667l-66 311h667l-23 107h-667l-66 312h667l-23 107h-667l-66 312h667l-23 107h-667l-184 863h7879l746-3509z"/><path class="fil3" d="M6816 3785l184-863h-667l23-107h666l67-312h-667l23-107h667l66-312h-667l23-107h667l66-311h-667l23-108h667l66-311h-667l23-108h667l183-863H1096L350 3785z"/><path class="fil4" d="M10004 2523h-515l-126 591h-472l336-1579h1142l-80 376h-670l-55 257h515l-75 355zm1044-988l-336 1579h-485l336-1579h485zm1108 1202l-80 377h-1188l336-1579h1188l-77 364h-713l-49 229h576l-75 351h-576l-55 258h713zm90 377l336-1579h802c167 0 279 42 338 126 58 84 76 180 53 288-17 79-54 150-112 213-58 64-133 107-226 131 194 49 270 172 228 368-25 117-83 222-175 314s-256 138-492 138h-752zm521-352h236c59 0 105-14 138-43 34-29 54-61 62-98 8-36 1-70-19-100s-66-46-137-46h-220l-61 287zm132-622h224c56 0 99-14 128-43s47-59 54-91c19-88-26-132-134-132h-216l-57 266zm-3626-928l108-19c2 29 22 44 58 44 28 0 44-8 47-22 2-8 0-14-6-18s-16-8-32-12c-61-12-99-28-113-48s-18-43-12-70c7-34 26-63 57-86s71-34 120-34c74 0 117 30 128 90l-99 28c-4-24-21-37-51-37-24 0-38 8-41 23-1 7 0 12 5 16s15 7 30 11c42 9 71 17 88 25 17 7 30 19 38 36 9 17 10 38 6 61-8 37-29 67-64 90s-77 34-125 34c-89 0-136-37-141-111zm920-260l-78 365h-112l78-365h112zm358 260l108-19c2 29 22 44 58 44 28 0 44-8 47-22 2-8 0-14-6-18s-16-8-32-12c-61-12-99-28-113-48s-18-43-12-70c7-34 26-63 57-86s71-34 120-34c74 0 117 30 128 90l-99 28c-4-24-21-37-51-37-24 0-38 8-41 23-1 7 0 12 5 16s15 7 30 11c42 9 71 17 88 25 17 7 30 19 38 36 9 17 10 38 6 61-8 37-29 67-64 90s-77 34-125 34c-89 0-136-37-141-111zm942-172l-59 278h-106l59-278h-76l19-88h258l-19 88h-76zm721 191l-19 87h-275l78-365h275l-18 84h-165l-11 53h133l-17 81h-133l-13 60h165zm889-278l-78 365h-104l56-261-123 261h-71l-15-261-56 261h-84l78-365h147l12 194 92-194h147zm566 365l-5-72h-98l-37 72h-91l190-365h119l37 365h-114zm-67-152h59l-7-106-52 106z"/><path class="fil5" d="M952 4264h311l-18 76h-210l-25 110h172l-18 76H992l-44 193H846l105-455zm512 248h-140c13-52 44-79 84-79 37 0 60 26 58 65 0 1-1 7-2 14zm71 115l-84-18c-18 34-46 52-77 52-41 0-65-29-63-77 0-5 1-11 2-18h239c2-11 4-23 4-35 5-98-50-158-142-158-111 0-194 85-200 199-5 95 56 157 150 157 72 0 132-35 170-101zm238-188c30 0 50 24 48 62-5 90-45 159-91 159-31 0-47-24-45-68 5-90 43-153 88-153zm106-175l-38 165c-18-36-47-54-88-54-38 0-72 16-101 48-38 41-63 101-67 166-5 84 38 138 105 138 42 0 76-22 103-66l-13 58h88l105-454h-94zm332 248h-140c13-52 44-79 84-79 37 0 60 26 58 65 0 1-1 7-2 14zm71 115l-84-18c-18 34-46 52-77 52-41 0-65-29-63-77 0-5 1-11 2-18h239c2-11 4-23 4-35 5-98-50-158-142-158-111 0-194 85-200 199-5 95 56 157 150 157 72 0 132-35 170-101zm113-245l-78 337h98l27-121c21-90 52-134 115-134 7 0 14 1 21 1l21-92c-8-1-14-1-18-1-51 0-89 34-120 105l22-96h-89zm397 171c2 0 8 1 18 1-11 67-56 108-98 108-27 0-44-16-42-43 2-41 43-65 122-65zm-5 103c-3 17-5 29-5 37-1 10-1 18 0 26h96c-1-12-1-22 0-31 1-12 3-25 6-40l31-136c3-13 5-26 5-36 4-66-44-103-131-103-88 0-146 33-173 86l83 20c13-28 40-43 75-43 36 0 54 17 52 49 0 3-1 8-4 19-12-1-21-1-31-1-143 0-220 46-224 124-3 56 37 97 102 97 48 0 88-23 118-68zm217 164l-16 37c39 12 69 18 89 18 57 0 87-26 90-70 2-35-22-54-69-54h-3l12-31h-31l-26 65h8c39 0 56 5 55 25-1 16-14 27-37 27-17 0-42-5-73-16zm251-205l-77-21c-15 39-41 60-71 60-34 0-53-25-51-71 5-84 41-139 84-139 30 0 52 25 51 67l88-14c-3-76-56-124-135-124-101 0-180 85-187 202-5 92 50 152 138 152 72 0 129-39 160-113zm311-303c35 0 56-23 72-73h-33c-6 18-15 27-31 27-6 0-13-1-20-3l-20-7c-10-3-19-5-27-5-34 0-58 24-74 75h34c6-20 16-28 33-28 4 0 11 1 19 4l21 6c9 3 18 5 27 5zm-36 242c-11 67-56 108-97 108-28 0-44-16-42-43 2-41 43-65 121-65 2 0 9 1 18 1zm-23 102c-3 17-5 29-5 37-1 10-1 18 0 26h96c-1-12-1-22 0-31 1-12 3-25 6-40l31-136c3-13 5-26 5-36 4-66-44-103-131-103-88 0-146 33-173 86l83 20c13-28 40-43 75-43 36 0 54 17 52 49 0 3-1 8-4 19-12-1-22-1-31-1-143 0-219 46-224 124-3 56 37 97 102 97 48 0 88-23 118-68zm360-217c36 0 57 28 55 75-5 83-46 146-92 146-34 0-56-28-54-77 4-80 44-145 91-145zm4-67c-105 0-187 92-193 199-5 92 56 157 151 157 106 0 185-92 191-198 5-96-54-157-149-157zm569 67c30 0 51 24 48 62-5 90-45 159-91 159-31 0-47-24-45-68 5-90 43-153 88-153zm106-175l-38 165c-18-36-47-54-87-54-38 0-72 16-102 48-38 41-63 101-67 166-5 84 39 138 105 138 42 0 77-22 103-66l-14 58h88l105-454h-94zm299 289c2 0 8 1 18 1-11 67-56 108-98 108-27 0-44-16-42-43 2-41 43-65 122-65zm-5 103c-3 17-5 29-5 37-1 10-1 18 0 26h96c-1-12-1-22 0-31 1-12 3-25 6-40l31-136c3-13 5-26 5-36 4-66-44-103-131-103-88 0-146 33-173 86l83 20c12-28 40-43 75-43 36 0 54 17 52 49 0 3-1 8-4 19-12-1-21-1-31-1-143 0-219 46-224 124-3 56 37 97 102 97 48 0 88-23 118-68zm302 10c-32 0-59-19-69-52l-82 15c13 59 69 98 150 98 88 0 151-48 154-109 2-46-26-73-85-103-37-18-64-29-63-54 1-16 15-28 36-28 22 0 50 17 61 44l78-20c-16-50-69-84-138-84-78 0-137 50-140 106-2 44 29 73 87 103 37 18 57 32 56 52-1 18-18 32-45 32zm607-402h-105l-105 455h106l104-455zm59 118l-78 337h94l44-189c12-53 45-85 79-85 27 0 42 18 40 49 0 7-1 13-3 21l-47 205h94l49-212c4-17 6-31 6-42 3-58-31-92-91-92-48 0-87 25-115 72l14-63h-86zm500 57c30 0 51 24 48 62-5 90-45 159-91 159-31 0-47-24-45-68 5-90 43-153 88-153zm106-175l-38 165c-18-36-47-54-88-54-38 0-72 16-102 48-38 41-63 101-67 166-5 84 38 138 105 138 42 0 77-22 103-66l-14 58h89l104-454h-94zm413-43h-82l-81 116h43l120-116zm28 161h-94l-44 189c-12 52-46 85-80 85-27 0-42-17-41-49 0-7 1-14 3-22l48-205h-94l-49 212c-4 16-6 30-6 41-3 59 31 93 90 93 48 0 88-25 116-72l-14 63h87l78-337zm148 284c-32 0-59-19-69-52l-82 15c12 59 70 98 150 98 88 0 151-48 154-109 2-46-26-73-86-103-37-18-64-29-63-54 1-16 15-28 36-28 22 0 50 17 61 44l78-20c-16-50-69-84-138-84-78 0-136 50-139 106-2 44 29 73 88 103 37 18 57 32 56 52-1 18-17 32-45 32zm374-279l23-100-91 7-25 93h-49l-14 63h48l-32 136c-5 21-8 38-9 51-3 58 32 88 102 88 17 0 34-2 52-5l16-69c-11 2-22 4-32 4-29 0-42-11-41-35 0-8 2-14 3-20l34-149h70l14-63h-69zm127-6l-78 337h98l27-121c21-90 52-134 115-134 7 0 14 1 21 1l21-92c-8-1-13-1-18-1-51 0-89 34-120 105l22-96h-89zm269-118l-18 79h104l18-79h-104zm-101 455h98l77-337h-98l-78 337zm411-166c2 0 9 1 18 1-11 67-56 108-98 108-28 0-44-16-42-43 2-41 44-65 121-65zm-5 103c-3 17-5 29-5 37-1 10-1 18 0 26h96c-1-12-1-22 0-31 1-12 3-25 6-40l31-136c3-13 5-26 5-36 4-66-44-103-131-103-88 0-146 33-173 86l83 20c13-28 40-43 75-43 36 0 54 17 52 49 0 3-1 8-4 19-12-1-22-1-31-1-143 0-219 46-224 124-3 56 37 97 102 97 48 0 88-23 118-68zm302 10c-32 0-59-19-69-52l-82 15c13 59 70 98 150 98 88 0 151-48 154-109 2-46-26-73-86-103-37-18-64-29-62-54 1-16 15-28 36-28 22 0 50 17 61 44l78-20c-16-50-69-84-138-84-78 0-136 50-139 106-2 44 29 73 87 103 37 18 57 32 56 52-1 18-17 32-45 32zm592-227c30 0 50 24 48 62-5 90-45 159-91 159-31 0-47-24-45-68 5-90 43-153 88-153zm106-175l-38 165c-18-36-47-54-88-54-38 0-72 16-102 48-37 41-63 101-67 166-5 84 38 138 104 138 42 0 77-22 103-66l-13 58h89l105-454h-94zm272 175c36 0 57 28 55 75-5 83-46 146-92 146-34 0-56-28-54-77 4-80 44-145 91-145zm4-67c-105 0-187 92-193 199-5 92 56 157 151 157 106 0 185-92 191-198 5-96-54-157-149-157zm477-108l-105 455h333l18-82h-235l27-117h188l18-76h-188l24-104h220l17-76h-318zm424 402c-31 0-58-19-69-52l-82 15c13 59 70 98 150 98 88 0 151-48 154-109 2-46-26-73-86-103-37-18-64-29-62-54 1-16 15-28 36-28 22 0 49 17 61 44l78-20c-16-50-69-84-138-84-78 0-136 50-139 106-2 44 29 73 87 103 37 18 57 32 56 52-1 18-17 32-45 32zm374-279l23-100-91 7-25 93h-49l-15 63h48l-32 136c-5 21-8 38-9 51-3 58 32 88 102 88 16 0 33-2 52-5l16-69c-11 2-23 4-32 4-29 0-42-11-41-35 0-8 1-14 3-20l34-149h70l14-63h-70zm282 165c2 0 8 1 18 1-11 67-56 108-98 108-28 0-44-16-42-43 2-41 43-65 122-65zm-5 103c-3 17-5 29-5 37-1 10-1 18 0 26h96c-1-12-1-22 0-31 1-12 3-25 6-40l31-136c3-13 5-26 5-36 4-66-44-103-131-103-88 0-146 33-173 86l83 20c13-28 40-43 75-43 36 0 54 17 53 49 0 3-1 8-4 19-12-1-22-1-31-1-143 0-220 46-224 124-3 56 37 97 102 97 48 0 88-23 119-68zm357-217c30 0 51 24 49 62-5 90-45 159-91 159-31 0-47-24-45-68 5-90 43-153 88-153zm106-175l-38 165c-18-36-47-54-88-54-38 0-72 16-101 48-38 41-63 101-67 166-5 84 38 138 105 138 42 0 77-22 103-66l-14 58h88l105-454h-94zm272 175c36 0 58 28 55 75-5 83-46 146-93 146-34 0-56-28-54-77 4-80 44-145 91-145zm4-67c-105 0-187 92-193 199-5 92 56 157 151 157 106 0 185-92 191-198 5-96-54-157-149-157zm569 67c30 0 50 24 48 62-5 90-45 159-91 159-31 0-47-24-45-68 5-90 43-153 88-153zm106-175l-38 165c-18-36-47-54-88-54-38 0-72 16-102 48-38 41-63 101-67 166-5 84 38 138 104 138 42 0 77-22 103-66l-13 58h88l105-454h-94zm299 289c2 0 9 1 18 1-11 67-56 108-97 108-28 0-44-16-42-43 2-41 44-65 121-65zm-5 103c-3 17-5 29-5 37-1 10-1 18 0 26h96c-1-12-1-22 0-31 1-12 3-25 6-40l31-136c3-13 5-26 5-36 4-66-44-103-131-103-88 0-146 33-173 86l83 20c13-28 40-43 75-43 36 0 54 17 52 49 0 3-1 8-4 19-12-1-22-1-31-1-143 0-219 46-224 124-3 56 37 97 102 97 48 0 88-23 118-68zm517-206l27-113h86c41 0 62 19 60 51-2 38-32 62-85 62h-88zm-15 68h81c54 0 80 20 78 60-2 43-34 66-91 66h-97l29-126zm-37-253l-105 455h226c108 0 170-51 174-130 3-52-24-90-74-106 63-11 103-54 106-109 4-74-44-110-145-110h-181zm556 289c2 0 9 1 19 1-11 67-56 108-98 108-28 0-44-16-42-43 2-41 43-65 121-65zm-5 103c-3 17-5 29-5 37-1 10-1 18 0 26h96c-1-12-1-22 0-31 1-12 3-25 6-40l31-136c3-13 5-26 5-36 4-66-43-103-131-103s-146 33-173 86l83 20c13-28 40-43 75-43 36 0 54 17 52 49 0 3-1 8-4 19-12-1-22-1-31-1-143 0-219 46-223 124-3 56 37 97 101 97 48 0 89-23 118-68zm259-392l-105 455h94l44-189c12-53 45-85 79-85 27 0 42 17 40 49 0 7-1 14-3 21l-47 205h94l49-212c3-17 6-31 6-42 3-58-31-92-89-92-41 0-79 20-108 60l39-169h-94zm373 0l-18 79h104l18-79h-104zm-101 455h98l77-337h-98l-78 337zm411-166c2 0 9 1 18 1-11 67-56 108-98 108-28 0-44-16-42-43 2-41 44-65 121-65zm-5 103c-3 17-5 29-5 37-1 10-1 18 0 26h96c-1-12-1-22 0-31 1-12 3-25 6-40l31-136c3-13 5-26 5-36 4-66-44-103-131-103-88 0-146 33-173 86l83 20c13-28 40-43 75-43 36 0 54 17 52 49 0 3-1 8-4 19-12-1-21-1-31-1-143 0-220 46-224 124-3 56 37 97 102 97 48 0 88-23 118-68z"/><path class="fil6" d="M2989 1154l-177 40c-15-70-62-105-138-105-36 0-64 8-87 25-22 17-34 37-36 61s6 42 22 54 48 25 95 37c68 17 121 36 160 55 38 19 67 46 86 80 19 35 27 76 24 126-5 80-39 146-101 200s-148 80-256 80c-93 0-168-21-227-64s-93-107-102-193l183-25c13 84 68 126 164 126 43 0 77-9 102-28 24-18 37-42 39-70 2-27-6-47-22-59-17-12-57-27-120-44-57-15-103-32-136-51s-59-45-77-79-26-73-23-117c5-71 36-134 94-189 58-54 134-82 230-82 164 0 265 74 304 221zm793-209l-38 160h-398l-40 174h332l-35 154h-333l-46 199h405l-38 160h-603l196-847h597zm775 0l-197 847h-159l-206-613c-4 41-24 138-59 290l-75 323h-159l196-847h215l170 515c2-17 20-100 54-248l62-267h159zm656 847h-200l-15-187h-283l-94 187h-183l456-847h232l87 847zm-426-334h198l-28-339-170 339zm885-513l-196 847h-195l196-847h195zM1982 2570l-194 9c2-13 3-23 3-30 3-43-6-79-25-109-20-30-51-45-95-45-71 0-125 43-161 128-36 86-57 169-62 252-4 61 6 105 31 133 24 28 57 42 98 42 83 0 144-52 182-156l172 30c-77 192-203 289-379 289-109 0-189-36-242-108s-76-158-69-259c9-135 54-254 135-357 82-103 184-154 308-154 90 0 163 27 220 82 57 54 83 139 80 253zm364-320l-196 847h-195l196-847h195zm1072 0l-196 847h-198l164-709-387 709h-114l-67-716-166 716h-160l196-847h297l42 518 281-518h307zm649 847h-200l-15-187h-283l-94 187h-183l456-847h232l87 847zm-425-334h198l-28-339-170 339zm1116-353h-213l-159 687h-195l159-687h-214l37-160h622l-38 160zm694-160l-38 160h-398l-40 174h332l-35 154h-333l-46 199h405l-38 160h-603l196-847h597zm702 320l-194 9c2-13 3-23 3-30 3-43-6-79-25-109-20-30-51-45-95-45-71 0-125 43-161 128-36 86-57 169-62 252-4 61 6 105 31 133 24 28 57 42 98 42 83 0 144-52 182-156l172 30c-77 192-203 289-379 289-109 0-189-36-242-108s-76-158-69-259c9-135 54-254 135-357 82-103 184-154 308-154 90 0 163 27 220 82 57 54 83 139 80 253z"/></g></g></svg>