<svg width="2535" height="558" viewBox="0 0 2535 558" xmlns="http://www.w3.org/2000/svg" xmlns:xlink="http://www.w3.org/1999/xlink"><title>Logo Tampa</title><desc>Created using Figma</desc><use xlink:href="#a" transform="matrix(3 0 0 3 210 123)" fill="#E8144D"/><use xlink:href="#b" transform="matrix(3 0 0 3 765 6)" fill="#E8144D"/><use xlink:href="#c" transform="matrix(3 0 0 3 1023 0)" fill="#E8144D"/><use xlink:href="#d" transform="matrix(3 0 0 3 1215 39)" fill="#E8144D"/><use xlink:href="#e" transform="matrix(3 0 0 3 1404 36)" fill="#E8144D"/><use xlink:href="#f" transform="matrix(3 0 0 3 1650 138)" fill="#E8144D"/><use xlink:href="#g" transform="matrix(3 0 0 3 2208 21)" fill="#E8144D"/><use xlink:href="#h" transform="matrix(0 -3 3 0 1.5 108)" fill="#E8144D"/><use xlink:href="#i" transform="matrix(0 -3 3 0 1551 120)" fill="#E8144D"/><use xlink:href="#j" transform="matrix(0 3 -3 0 978 435)" fill="#E8144D"/><use xlink:href="#k" transform="matrix(0 3 -3 0 2535 448.5)" fill="#E8144D"/><use xlink:href="#l" transform="matrix(3 0 0 3 1149 84)" fill="#E8144D"/><use xlink:href="#l" transform="matrix(3 0 0 3 1338 84)" fill="#E8144D"/><use xlink:href="#m" transform="matrix(3 0 0 3 513 210)" fill="#E8144D"/><use xlink:href="#m" transform="matrix(-3 0 0 -3 2031 342)" fill="#E8144D"/><use xlink:href="#n" transform="matrix(3 0 0 3 351 429)" fill="#E8144D"/><use xlink:href="#n" transform="matrix(3 0 0 3 1794 447)" fill="#E8144D"/><use xlink:href="#n" transform="matrix(-3 0 0 -3 2190 120)" fill="#E8144D"/><use xlink:href="#n" transform="matrix(-3 0 0 -3 744 108)" fill="#E8144D"/><use xlink:href="#o" transform="matrix(3 0 0 3 393 123)" fill="#E8144D"/><use xlink:href="#o" transform="matrix(-3 0 0 -3 2151 429)" fill="#E8144D"/><use xlink:href="#p" transform="matrix(3 0 0 -3 633 309)" fill="#E8144D"/><use xlink:href="#q" transform="rotate(-145.541 1008.117 -129.3) scale(3)" fill="#E8144D"/><defs><path id="a" d="M0 0h41v139L0 108.167V0z"/><path id="b" d="M0 0l39 35v100H0V0z"/><path id="c" d="M0 0h34v171L0 145V0z"/><path id="d" d="M0 0l34 29v131L0 128V0z"/><path id="e" d="M0 0l34 30v136H0V0z"/><path id="f" d="M0 0h42v140L0 100V0z"/><path id="g" d="M0 0l42 27v112H0V0z"/><path id="h" d="M0 0l32 45.5v112l-32 26V0z"/><path id="i" d="M0 0l32 39.921v98.267L0 161V0z"/><path id="j" d="M0 0l32 38.681v95.215L0 156V0z"/><path id="k" d="M0 0l31.5 43.5V157L0 179.5V0z"/><path id="l" d="M0 27.5L15 0v98L0 126.5v-99z"/><path id="m" d="M7 23L35 0v68H0l7-45z"/><path id="n" d="M0 0h38L0 30V0z"/><path id="o" d="M12.5 0H45L0 37 12.5 0z"/><path id="p" d="M0 0l34.5 5L0 30V0z"/><path id="q" d="M0 0l42.462 1.788-24.25 22.1L0 0z"/></defs></svg>