<svg xmlns="http://www.w3.org/2000/svg" viewBox="0 0 691.42 448"><path fill="#D5D5D5" d="M111.29 258.04h117.27v12.42H111.29z"/><path fill="#D5D5D5" d="M107.99 258.04h123.87v3.19H107.99z"/><path fill="#585858" d="M233.85 300.47h-127.6l5.04-30.01h117.27z"/><linearGradient id="a" gradientUnits="userSpaceOnUse" x1="106.252" y1="280.968" x2="175.791" y2="280.968"><stop offset="0" stop-opacity="0"/><stop offset="1"/></linearGradient><path opacity=".3" fill="url(#a)" d="M175.79 261.23h-64.45l-.05 9.23-1.65 11.16-3.39 18.87h19.45l41.36.22z"/><path fill="#4A72B1" d="M169.32 162.12h-24.95l64.48 111.49 12.46-21.55.02-.03z"/><path fill="#C4483B" d="M229.41 238.06a13 13 0 0 0 0-13.02l-36.39-62.92h-23.7l52.01 89.91 8.08-13.97z"/><path opacity=".2" fill="#FFF" d="M193.02 163.21l36.39 62.92c1.07 1.86 1.63 3.91 1.71 5.97.1-2.43-.46-4.88-1.71-7.05l-36.39-62.92h-48.66l.63 1.08h48.03z"/><path opacity=".05" fill="#FFF" d="M193.02 163.21l-15.1 9.86v18.51l39.41 12.58z"/><path fill="#585858" d="M180.47 193.6h-23.5c-.56 0-1.01-.45-1.01-1.01s.45-1.01 1.01-1.01h23.5c.56 0 1.01.45 1.01 1.01s-.45 1.01-1.01 1.01z"/><path fill="#585858" d="M157.92 192.59h21.61v3.76h-21.61z"/><path fill="#D5D5D5" d="M159.52 174.33h18.4v17.25h-18.4z"/><path fill="#585858" d="M161 174.33h15.45v17.25H161z"/><path fill="#D5D5D5" d="M167.89 174.33h1.66v17.25h-1.66zm-8.37-1.26h18.4v1.26h-18.4z"/><path fill="#D5D5D5" d="M159.52 190.38h18.4v1.26h-18.4z"/><path fill="#585858" d="M154.96 211.97l-.01.03h27.27l-.01-.03z"/><path fill="#D5D5D5" d="M180.56 196.35h-23.64l-1.96 15.62h27.25z"/><path fill="#585858" d="M152.98 227.72h30.9L182.22 212h-27.27z"/><path fill="#D5D5D5" d="M185.53 243.36l-1.65-15.64h-30.9l-1.97 15.64z"/><path fill="#585858" d="M151 243.44l-1.97 15.65h38.17l-1.66-15.65z"/><path fill="#585858" d="M151 243.44h34.54l-.01-.08h-34.52z"/><path fill="#FFF" d="M185.53 243.36l-1.65-15.64-1.66-15.72v-.03l-1.65-15.62h-12.93v44.56c0 7.54 6.17 13.7 13.7 13.7h5.39l-1.18-11.17-.02-.08z" opacity=".1"/><linearGradient id="b" gradientUnits="userSpaceOnUse" x1="164.885" y1="183.61" x2="169.799" y2="170.109"><stop offset="0" stop-opacity="0"/><stop offset="1"/></linearGradient><path opacity=".3" fill="url(#b)" d="M159.52 181.66v-8.59h18.4z"/><path fill="#464646" d="M178.18 173.18h-18.91c0-3.8 4.23-6.89 9.46-6.89 5.22 0 9.45 3.09 9.45 6.89z"/><path fill="#464646" d="M167.89 162.49h2.03v4.72h-2.03z"/><path fill="#E5B430" d="M208.54 273.07L197 253.12l-27.68 47.86h23.7l15.83-27.37z"/><path fill="#1F9354" d="M184.53 231.55L197 253.12l-27.68 47.86h-24.95z"/><path opacity=".2" fill="#B33817" d="M193.02 299.9h-23.07l-.63 1.08h23.7l15.83-27.37-.31-.54z"/><path opacity=".2" fill="#243137" d="M145 299.9l-.63 1.08h24.95l.63-1.08z"/><radialGradient id="c" cx="208.673" cy="176.817" r="48.02" gradientTransform="matrix(1 0 0 -1 0 450)" gradientUnits="userSpaceOnUse"><stop offset="0" stop-color="#b33817" stop-opacity=".2"/><stop offset="1" stop-color="#b33817" stop-opacity=".02"/></radialGradient><path fill="url(#c)" d="M208.85 273.61L197 253.12l-2.9 5.02z"/><radialGradient id="d" cx="208.536" cy="176.513" r="48.409" gradientTransform="matrix(1 0 0 -1 0 450)" gradientUnits="userSpaceOnUse"><stop offset="0" stop-color="#243137" stop-opacity=".2"/><stop offset="1" stop-color="#243137" stop-opacity=".02"/></radialGradient><path fill="url(#d)" d="M194.1 258.14l2.9-5.02-12.47-21.57-5.96 10.31z"/><path d="M329.4 202.83h20.51c20.89 0 34 13.86 34 33.32 0 19.54-13.12 33.32-34 33.32H329.4v-66.64zm20.87 56.54c14.54 0 23.55-8.07 23.55-23.22 0-15.06-9.01-23.22-23.55-23.22H339.5v46.44h10.77zm-29.29-26.25h-31.96v9.89h22.53c-.74 5.05-2.49 8.98-5.11 11.61-3.34 3.34-8.55 7.01-17.7 7.01-14.11 0-25.15-11.38-25.15-25.49s11.03-25.49 25.15-25.49c7.61 0 13.17 3 17.28 6.84l6.76-6.76c-5.73-5.48-13.34-9.67-24.03-9.67-19.33 0-35.58 15.73-35.58 35.07 0 19.33 16.25 35.07 35.58 35.07 10.43 0 18.3-3.42 24.46-9.83 6.33-6.33 8.3-15.22 8.3-22.41-.02-2.21-.19-4.13-.53-5.84zm137.3 0h-31.96v9.89h22.53c-.74 5.05-2.49 8.98-5.11 11.61-3.34 3.34-8.55 7.01-17.7 7.01-14.11 0-25.15-11.38-25.15-25.49s11.03-25.49 25.15-25.49c7.61 0 13.17 3 17.28 6.84l6.76-6.76c-5.73-5.48-13.34-9.67-24.03-9.67-19.33 0-35.58 15.73-35.58 35.07 0 19.33 16.25 35.07 35.58 35.07 10.43 0 18.3-3.42 24.46-9.83 6.33-6.33 8.3-15.22 8.3-22.41-.01-2.21-.19-4.13-.53-5.84z" fill="#777"/><path d="M486.64 270.54c-4.73 0-9.35-1.54-13.86-4.63s-7.47-7.42-8.86-13l7.63-3.09c.91 3.58 2.77 6.59 5.59 9.04 2.82 2.45 5.98 3.68 9.5 3.68 3.64 0 6.74-.95 9.32-2.86 2.57-1.91 3.86-4.5 3.86-7.77 0-3.64-1.29-6.44-3.86-8.41-2.58-1.97-6.65-3.8-12.22-5.5-5.76-1.82-10.12-4.17-13.09-7.04-2.97-2.88-4.45-6.56-4.45-11.04 0-4.66 1.85-8.72 5.54-12.18 3.69-3.45 8.51-5.18 14.45-5.18 5.51 0 10 1.38 13.45 4.14 3.45 2.76 5.69 5.77 6.73 9.04l-7.63 3.18c-.55-2.06-1.89-3.97-4.04-5.73-2.15-1.76-4.92-2.64-8.32-2.64-3.21 0-5.95.9-8.22 2.68-2.27 1.79-3.41 4.01-3.41 6.68 0 2.42 1.05 4.47 3.14 6.13 2.09 1.67 5.16 3.17 9.22 4.5 3.21 1.03 5.89 2.03 8.04 3 2.15.97 4.33 2.26 6.54 3.86 2.21 1.61 3.88 3.61 5 6s1.68 5.17 1.68 8.32c0 3.15-.65 5.97-1.95 8.45-1.3 2.48-3.03 4.45-5.18 5.91a25.998 25.998 0 0 1-14.6 4.46zm48.44 0c-4.73 0-9.35-1.54-13.86-4.63s-7.47-7.42-8.86-13l7.63-3.09c.91 3.58 2.77 6.59 5.59 9.04 2.82 2.45 5.98 3.68 9.5 3.68 3.64 0 6.74-.95 9.32-2.86 2.57-1.91 3.86-4.5 3.86-7.77 0-3.64-1.29-6.44-3.86-8.41-2.58-1.97-6.65-3.8-12.22-5.5-5.76-1.82-10.12-4.17-13.09-7.04-2.97-2.88-4.45-6.56-4.45-11.04 0-4.66 1.85-8.72 5.54-12.18 3.69-3.45 8.51-5.18 14.45-5.18 5.51 0 10 1.38 13.45 4.14 3.45 2.76 5.69 5.77 6.73 9.04l-7.63 3.18c-.55-2.06-1.89-3.97-4.04-5.73-2.15-1.76-4.92-2.64-8.32-2.64-3.21 0-5.95.9-8.22 2.68-2.27 1.79-3.41 4.01-3.41 6.68 0 2.42 1.05 4.47 3.14 6.13 2.09 1.67 5.16 3.17 9.22 4.5 3.21 1.03 5.89 2.03 8.04 3 2.15.97 4.33 2.26 6.54 3.86 2.21 1.61 3.88 3.61 5 6s1.68 5.17 1.68 8.32c0 3.15-.65 5.97-1.95 8.45-1.3 2.48-3.03 4.45-5.18 5.91a25.998 25.998 0 0 1-14.6 4.46zm20.99-1.46l24.54-65.07h9.45l24.54 65.07h-9.27l-6.27-17.63H571.7l-6.36 17.63h-9.27zm18.45-25.45h21.63l-10.63-29.35h-.36l-10.64 29.35z" fill="#585858"/></svg>